999
dxflib 3.3.4.0
  0
SECTION
  2
HEADER
  9
$ACADVER
  1
AC1015
  9
$HANDSEED
  5
FFFF
  9
$ANGBASE
 50
0.0
  9
$ATTMODE
 70
1
  9
$AUNITS
 70
0
  9
$AUPREC
 70
0
  9
$CELTSCALE
 40
1.0
  9
$CHAMFERA
 40
0.0
  9
$CHAMFERB
 40
0.0
  9
$CHAMFERC
 40
0.0
  9
$CHAMFERD
 40
0.0
  9
$CMLJUST
 70
0
  9
$CMLSCALE
 40
1.0
  9
$DIMADEC
 70
0
  9
$DIMALTD
 70
2
  9
$DIMALTF
 40
25.399999999999999
  9
$DIMALTRND
 40
0.0
  9
$DIMALTTD
 70
2
  9
$DIMALTTZ
 70
0
  9
$DIMALTU
 70
2
  9
$DIMALTZ
 70
0
  9
$DIMAPOST
  1

  9
$DIMASZ
 40
2.5
  9
$DIMATFIT
 70
3
  9
$DIMAUNIT
 70
0
  9
$DIMAZIN
 70
2
  9
$DIMCEN
 40
0.09
  9
$DIMDEC
 70
4
  9
$DIMDLE
 40
0.0
  9
$DIMDLI
 40
0.38
  9
$DIMDSEP
 70
46
  9
$DIMEXE
 40
1.25
  9
$DIMEXO
 40
0.625
  9
$DIMFRAC
 70
0
  9
$DIMGAP
 40
0.625
  9
$DIMJUST
 70
0
  9
$DIMLFAC
 40
1.0
  9
$DIMLUNIT
 70
2
  9
$DIMLWD
 70
-2
  9
$DIMLWE
 70
-2
  9
$DIMPOST
  1

  9
$DIMRND
 40
0.0
  9
$DIMSCALE
 40
1.0
  9
$DIMTAD
 70
0
  9
$DIMTDEC
 70
4
  9
$DIMTFAC
 40
1.0
  9
$DIMTM
 40
0.0
  9
$DIMTOLJ
 70
1
  9
$DIMTP
 40
0.0
  9
$DIMTSZ
 40
0.0
  9
$DIMTVP
 40
0.0
  9
$DIMTXT
 40
2.5
  9
$DIMTZIN
 70
0
  9
$DIMZIN
 70
8
  9
$DWGCODEPAGE
  3
ANSI_1252
  9
$ELEVATION
 40
0.0
  9
$EXTMAX
 10
-100000000000000000000.0
 20
-100000000000000000000.0
 30
-100000000000000000000.0
  9
$EXTMIN
 10
100000000000000000000.0
 20
100000000000000000000.0
 30
100000000000000000000.0
  9
$FILLETRAD
 40
0.5
  9
$INSBASE
 10
0.0
 20
0.0
 30
0.0
  9
$INSUNITS
 70
4
  9
$LIMMAX
 10
12.0
 20
9.0
  9
$LIMMIN
 10
0.0
 20
0.0
  9
$LTSCALE
 40
1.0
  9
$LUNITS
 70
2
  9
$LUPREC
 70
4
  9
$MAXACTVP
 70
64
  9
$PDMODE
 70
0
  9
$PDSIZE
 40
0.0
  9
$PELEVATION
 40
0.0
  9
$PEXTMAX
 10
-100000000000000000000.0
 20
-100000000000000000000.0
 30
-100000000000000000000.0
  9
$PEXTMIN
 10
100000000000000000000.0
 20
100000000000000000000.0
 30
100000000000000000000.0
  9
$PINSBASE
 10
0.0
 20
0.0
 30
0.0
  9
$PLIMMAX
 10
12.0
 20
9.0
  9
$PLIMMIN
 10
0.0
 20
0.0
  9
$PLINEWID
 40
0.0
  9
$PROXYGRAPHICS
 70
1
  9
$PUCSORG
 10
0.0
 20
0.0
 30
0.0
  9
$PUCSXDIR
 10
1.0
 20
0.0
 30
0.0
  9
$PUCSYDIR
 10
0.0
 20
1.0
 30
0.0
  9
$SHADEDGE
 70
3
  9
$SHADEDIF
 70
70
  9
$SKETCHINC
 40
0.1
  9
$SPLINESEGS
 70
8
  9
$SPLINETYPE
 70
6
  9
$SURFTAB1
 70
6
  9
$SURFTAB2
 70
6
  9
$SURFTYPE
 70
6
  9
$SURFU
 70
6
  9
$SURFV
 70
6
  9
$TEXTSIZE
 40
2.5
  9
$THICKNESS
 40
0.0
  9
$TRACEWID
 40
0.05
  9
$TREEDEPTH
 70
3020
  9
$UCSORG
 10
0.0
 20
0.0
 30
0.0
  9
$UCSXDIR
 10
1.0
 20
0.0
 30
0.0
  9
$UCSYDIR
 10
0.0
 20
1.0
 30
0.0
  9
$UNITMODE
 70
0
  9
$USERI1
 70
0
  9
$USERI2
 70
0
  9
$USERI3
 70
0
  9
$USERI4
 70
0
  9
$USERI5
 70
0
  9
$USERR1
 40
0.0
  9
$USERR2
 40
0.0
  9
$USERR3
 40
0.0
  9
$USERR4
 40
0.0
  9
$USERR5
 40
0.0
  0
ENDSEC
  0
SECTION
  2
TABLES
  0
TABLE
  2
VPORT
  5
8
100
AcDbSymbolTable
 70
1
  0
VPORT
  5
30
100
AcDbSymbolTableRecord
100
AcDbViewportTableRecord
  2
*Active
 70
0
 10
0.0
 20
0.0
 11
1.0
 21
1.0
 12
286.30555555555549
 22
148.5
 13
0.0
 23
0.0
 14
10.0
 24
10.0
 15
10.0
 25
10.0
 16
0.0
 26
0.0
 36
1.0
 17
0.0
 27
0.0
 37
0.0
 40
297.0
 41
1.92798353909465
 42
50.0
 43
0.0
 44
0.0
 50
0.0
 51
0.0
 71
0
 72
100
 73
1
 74
3
 75
1
 76
1
 77
0
 78
0
281
0
 65
1
110
0.0
120
0.0
130
0.0
111
1.0
121
0.0
131
0.0
112
0.0
122
1.0
132
0.0
 79
0
146
0.0
  0
ENDTAB
  0
TABLE
  2
LTYPE
  5
5
100
AcDbSymbolTable
 70
21
  0
LTYPE
  5
16
100
AcDbSymbolTableRecord
100
AcDbLinetypeTableRecord
  2
CONTINUOUS
 70
0
  3
Solid line
 72
65
 73
0
 40
0.0
  0
LTYPE
  5
31
100
AcDbSymbolTableRecord
100
AcDbLinetypeTableRecord
  2
CENTER2
 70
0
  3
Center (.5x) ___ _ ___ _ ___ _ ___ _ ___ _ ___
 72
65
 73
4
 40
28.574999999999999
 49
19.050000000000001
 74
0
 49
-3.1749999999999998
 74
0
 49
3.1749999999999998
 74
0
 49
-3.1749999999999998
 74
0
  0
LTYPE
  5
32
100
AcDbSymbolTableRecord
100
AcDbLinetypeTableRecord
  2
DIVIDEX2
 70
0
  3
Divide (2x) ________  .  .  ________  .  .  _
 72
65
 73
6
 40
63.5
 49
25.399999999999999
 74
0
 49
-12.699999999999999
 74
0
 49
0.0
 74
0
 49
-12.699999999999999
 74
0
 49
0.0
 74
0
 49
-12.699999999999999
 74
0
  0
LTYPE
  5
33
100
AcDbSymbolTableRecord
100
AcDbLinetypeTableRecord
  2
DOT2
 70
0
  3
Dot (.5x) .....................................
 72
65
 73
2
 40
3.1749999999999998
 49
0.0
 74
0
 49
-3.1749999999999998
 74
0
  0
LTYPE
  5
34
100
AcDbSymbolTableRecord
100
AcDbLinetypeTableRecord
  2
DASHDOT2
 70
0
  3
Dash dot (.5x) _._._._._._._._._._._._._._._.
 72
65
 73
4
 40
12.699999999999999
 49
6.3499999999999996
 74
0
 49
-3.1749999999999998
 74
0
 49
0.0
 74
0
 49
-3.1749999999999998
 74
0
  0
LTYPE
  5
35
100
AcDbSymbolTableRecord
100
AcDbLinetypeTableRecord
  2
DIVIDE
 70
0
  3
Divide ____ . . ____ . . ____ . . ____ . . ____
 72
65
 73
6
 40
31.75
 49
12.699999999999999
 74
0
 49
-6.3499999999999996
 74
0
 49
0.0
 74
0
 49
-6.3499999999999996
 74
0
 49
0.0
 74
0
 49
-6.3499999999999996
 74
0
  0
LTYPE
  5
36
100
AcDbSymbolTableRecord
100
AcDbLinetypeTableRecord
  2
DASHDOT
 70
0
  3
Dash dot __ . __ . __ . __ . __ . __ . __ . __
 72
65
 73
4
 40
25.399999999999999
 49
12.699999999999999
 74
0
 49
-6.3499999999999996
 74
0
 49
0.0
 74
0
 49
-6.3499999999999996
 74
0
  0
LTYPE
  5
37
100
AcDbSymbolTableRecord
100
AcDbLinetypeTableRecord
  2
BORDER
 70
0
  3
Border __ __ . __ __ . __ __ . __ __ . __ __ .
 72
65
 73
6
 40
44.450000000000003
 49
12.699999999999999
 74
0
 49
-6.3499999999999996
 74
0
 49
12.699999999999999
 74
0
 49
-6.3499999999999996
 74
0
 49
0.0
 74
0
 49
-6.3499999999999996
 74
0
  0
LTYPE
  5
38
100
AcDbSymbolTableRecord
100
AcDbLinetypeTableRecord
  2
DASHDOTX2
 70
0
  3
Dash dot (2x) ____  .  ____  .  ____  .  ___
 72
65
 73
4
 40
50.799999999999997
 49
25.399999999999999
 74
0
 49
-12.699999999999999
 74
0
 49
0.0
 74
0
 49
-12.699999999999999
 74
0
  0
LTYPE
  5
39
100
AcDbSymbolTableRecord
100
AcDbLinetypeTableRecord
  2
CENTERX2
 70
0
  3
Center (2x) ________  __  ________  __  _____
 72
65
 73
4
 40
101.59999999999999
 49
63.5
 74
0
 49
-12.699999999999999
 74
0
 49
12.699999999999999
 74
0
 49
-12.699999999999999
 74
0
  0
LTYPE
  5
3A
100
AcDbSymbolTableRecord
100
AcDbLinetypeTableRecord
  2
BORDER2
 70
0
  3
Border (.5x) __.__.__.__.__.__.__.__.__.__.__.
 72
65
 73
6
 40
22.225000000000001
 49
6.3499999999999996
 74
0
 49
-3.1749999999999998
 74
0
 49
6.3499999999999996
 74
0
 49
-3.1749999999999998
 74
0
 49
0.0
 74
0
 49
-3.1749999999999998
 74
0
  0
LTYPE
  5
3B
100
AcDbSymbolTableRecord
100
AcDbLinetypeTableRecord
  2
BORDERX2
 70
0
  3
Border (2x) ____  ____  .  ____  ____  .  ___
 72
65
 73
6
 40
88.900000000000006
 49
25.399999999999999
 74
0
 49
-12.699999999999999
 74
0
 49
25.399999999999999
 74
0
 49
-12.699999999999999
 74
0
 49
0.0
 74
0
 49
-12.699999999999999
 74
0
  0
LTYPE
  5
14
100
AcDbSymbolTableRecord
100
AcDbLinetypeTableRecord
  2
BYBLOCK
 70
0
  3

 72
65
 73
0
 40
0.0
  0
LTYPE
  5
15
100
AcDbSymbolTableRecord
100
AcDbLinetypeTableRecord
  2
BYLAYER
 70
0
  3

 72
65
 73
0
 40
0.0
  0
LTYPE
  5
3C
100
AcDbSymbolTableRecord
100
AcDbLinetypeTableRecord
  2
DASHED2
 70
0
  3
Dashed (.5x) _ _ _ _ _ _ _ _ _ _ _ _ _ _ _ _ _
 72
65
 73
2
 40
9.5250000000000004
 49
6.3499999999999996
 74
0
 49
-3.1749999999999998
 74
0
  0
LTYPE
  5
3D
100
AcDbSymbolTableRecord
100
AcDbLinetypeTableRecord
  2
CENTER
 70
0
  3
Center ____ _ ____ _ ____ _ ____ _ ____ _ ____
 72
65
 73
4
 40
50.799999999999997
 49
31.75
 74
0
 49
-6.3499999999999996
 74
0
 49
6.3499999999999996
 74
0
 49
-6.3499999999999996
 74
0
  0
LTYPE
  5
3E
100
AcDbSymbolTableRecord
100
AcDbLinetypeTableRecord
  2
DIVIDE2
 70
0
  3
Divide (.5x) __..__..__..__..__..__..__..__.._
 72
65
 73
6
 40
15.875
 49
6.3499999999999996
 74
0
 49
-3.1749999999999998
 74
0
 49
0.0
 74
0
 49
-3.1749999999999998
 74
0
 49
0.0
 74
0
 49
-3.1749999999999998
 74
0
  0
LTYPE
  5
3F
100
AcDbSymbolTableRecord
100
AcDbLinetypeTableRecord
  2
DASHED
 70
0
  3
Dashed __ __ __ __ __ __ __ __ __ __ __ __ __ _
 72
65
 73
2
 40
19.050000000000001
 49
12.699999999999999
 74
0
 49
-6.3499999999999996
 74
0
  0
LTYPE
  5
40
100
AcDbSymbolTableRecord
100
AcDbLinetypeTableRecord
  2
DOTX2
 70
0
  3
Dot (2x) .  .  .  .  .  .  .  .  .  .  .  .  .
 72
65
 73
2
 40
12.699999999999999
 49
0.0
 74
0
 49
-12.699999999999999
 74
0
  0
LTYPE
  5
41
100
AcDbSymbolTableRecord
100
AcDbLinetypeTableRecord
  2
DASHEDX2
 70
0
  3
Dashed (2x) ____  ____  ____  ____  ____  ___
 72
65
 73
2
 40
38.100000000000001
 49
25.399999999999999
 74
0
 49
-12.699999999999999
 74
0
  0
LTYPE
  5
42
100
AcDbSymbolTableRecord
100
AcDbLinetypeTableRecord
  2
DOT
 70
0
  3
Dot . . . . . . . . . . . . . . . . . . . . . .
 72
65
 73
2
 40
6.3499999999999996
 49
0.0
 74
0
 49
-6.3499999999999996
 74
0
  0
ENDTAB
  0
TABLE
  2
LAYER
  5
2
100
AcDbSymbolTable
 70
1
  0
LAYER
  5
10
100
AcDbSymbolTableRecord
100
AcDbLayerTableRecord
  2
0
 70
0
 62
7
420
16777215
  6
CONTINUOUS
370
25
390
F
  0
ENDTAB
  0
TABLE
  2
STYLE
  5
3
100
AcDbSymbolTable
 70
1
  0
STYLE
  5
43
100
AcDbSymbolTableRecord
100
AcDbTextStyleTableRecord
  2
Standard
 70
0
 40
0.0
 41
1.0
 50
0.0
 71
0
 42
2.5
  3

  4

1001
ACAD
1000
txt
1071
0
  0
ENDTAB
  0
TABLE
  2
VIEW
  5
6
100
AcDbSymbolTable
 70
0
  0
ENDTAB
  0
TABLE
  2
UCS
  5
7
100
AcDbSymbolTable
 70
0
  0
ENDTAB
  0
TABLE
  2
APPID
  5
9
100
AcDbSymbolTable
 70
1
  0
APPID
  5
12
100
AcDbSymbolTableRecord
100
AcDbRegAppTableRecord
  2
ACAD
 70
0
  0
APPID
  5
44
100
AcDbSymbolTableRecord
100
AcDbRegAppTableRecord
  2
QCAD
 70
0
  0
ENDTAB
  0
TABLE
  2
DIMSTYLE
  5
A
100
AcDbSymbolTable
 70
1
100
AcDbDimStyleTable
 71
0
  0
DIMSTYLE
105
27
100
AcDbSymbolTableRecord
100
AcDbDimStyleTableRecord
  2
Standard
 41
2.5
 42
0.625
 43
3.75
 44
1.25
 70
0
 73
0
 74
0
 77
1
 78
8
140
2.5
141
2.5
143
0.03937007874016
147
0.625
171
3
172
1
271
2
272
2
274
3
278
44
283
0
284
8
340
43
  0
ENDTAB
  0
TABLE
  2
BLOCK_RECORD
  5
1
100
AcDbSymbolTable
 70
1
  0
BLOCK_RECORD
  5
1F
100
AcDbSymbolTableRecord
100
AcDbBlockTableRecord
  2
*Model_Space
340
22
  0
BLOCK_RECORD
  5
1B
100
AcDbSymbolTableRecord
100
AcDbBlockTableRecord
  2
*Paper_Space
340
1E
  0
BLOCK_RECORD
  5
23
100
AcDbSymbolTableRecord
100
AcDbBlockTableRecord
  2
*Paper_Space0
340
26
  0
ENDTAB
  0
ENDSEC
  0
SECTION
  2
BLOCKS
  0
BLOCK
  5
20
100
AcDbEntity
  8
0
100
AcDbBlockBegin
  2
*Model_Space
 70
0
 10
0.0
 20
0.0
 30
0.0
  3
*Model_Space
  1

  0
ENDBLK
  5
21
100
AcDbEntity
  8
0
100
AcDbBlockEnd
  0
BLOCK
  5
1C
100
AcDbEntity
 67
1
  8
0
100
AcDbBlockBegin
  2
*Paper_Space
 70
0
 10
0.0
 20
0.0
 30
0.0
  3
*Paper_Space
  1

  0
ENDBLK
  5
1D
100
AcDbEntity
 67
1
  8
0
100
AcDbBlockEnd
  0
BLOCK
  5
24
100
AcDbEntity
  8
0
100
AcDbBlockBegin
  2
*Paper_Space0
 70
0
 10
0.0
 20
0.0
 30
0.0
  3
*Paper_Space0
  1

  0
ENDBLK
  5
25
100
AcDbEntity
  8
0
100
AcDbBlockEnd
  0
ENDSEC
  0
SECTION
  2
ENTITIES
  0
LINE
  5
45
100
AcDbEntity
100
AcDbLine
  8
0
 62
256
370
-1
  6
BYLAYER
 10
-0.0000000000000009
 20
-5.0
 30
0.0
 11
-0.0000000000000175
 21
-95.0
 31
0.0
  0
LINE
  5
46
100
AcDbEntity
100
AcDbLine
  8
0
 62
256
370
-1
  6
BYLAYER
 10
5.0000000000000435
 20
-100.0
 30
0.0
 11
194.99999999999994
 21
-100.00000000000011
 31
0.0
  0
LINE
  5
47
100
AcDbEntity
100
AcDbLine
  8
0
 62
256
370
-1
  6
BYLAYER
 10
84.999999999999972
 20
-91.500000000000028
 30
0.0
 11
84.999999999999986
 21
-88.500000000000028
 31
0.0
  0
LINE
  5
48
100
AcDbEntity
100
AcDbLine
  8
0
 62
256
370
-1
  6
BYLAYER
 10
84.999999999999986
 20
-88.500000000000028
 30
0.0
 11
74.999999999999943
 21
-88.499999999999972
 31
0.0
  0
LINE
  5
49
100
AcDbEntity
100
AcDbLine
  8
0
 62
256
370
-1
  6
BYLAYER
 10
74.999999999999943
 20
-88.499999999999972
 30
0.0
 11
74.999999999999986
 21
-91.499999999999957
 31
0.0
  0
LINE
  5
4A
100
AcDbEntity
100
AcDbLine
  8
0
 62
256
370
-1
  6
BYLAYER
 10
124.99999999999994
 20
-91.500000000000057
 30
0.0
 11
125.0
 21
-88.5
 31
0.0
  0
LINE
  5
4B
100
AcDbEntity
100
AcDbLine
  8
0
 62
256
370
-1
  6
BYLAYER
 10
125.0
 20
-88.5
 30
0.0
 11
114.99999999999996
 21
-88.499999999999957
 31
0.0
  0
LINE
  5
4C
100
AcDbEntity
100
AcDbLine
  8
0
 62
256
370
-1
  6
BYLAYER
 10
114.99999999999996
 20
-88.499999999999957
 30
0.0
 11
114.99999999999993
 21
-91.500000000000014
 31
0.0
  0
LINE
  5
4D
100
AcDbEntity
100
AcDbLine
  8
0
 62
256
370
-1
  6
BYLAYER
 10
104.99999999999991
 20
-91.500000000000085
 30
0.0
 11
105.00000000000003
 21
-88.500000000000014
 31
0.0
  0
LINE
  5
4E
100
AcDbEntity
100
AcDbLine
  8
0
 62
256
370
-1
  6
BYLAYER
 10
191.5
 20
-44.999999999999908
 30
0.0
 11
188.49999999999997
 21
-45.000000000000156
 31
0.0
  0
LINE
  5
4F
100
AcDbEntity
100
AcDbLine
  8
0
 62
256
370
-1
  6
BYLAYER
 10
188.5
 20
-55.000000000000007
 30
0.0
 11
191.50000000000009
 21
-55.00000000000005
 31
0.0
  0
LINE
  5
50
100
AcDbEntity
100
AcDbLine
  8
0
 62
256
370
-1
  6
BYLAYER
 10
191.49999999999997
 20
-65.000000000000057
 30
0.0
 11
188.50000000000009
 21
-65.000000000000057
 31
0.0
  0
LINE
  5
51
100
AcDbEntity
100
AcDbLine
  8
0
 62
256
370
-1
  6
BYLAYER
 10
188.50000000000009
 20
-65.000000000000057
 30
0.0
 11
188.49999999999994
 21
-75.000000000000128
 31
0.0
  0
LINE
  5
52
100
AcDbEntity
100
AcDbLine
  8
0
 62
256
370
-1
  6
BYLAYER
 10
188.49999999999994
 20
-75.000000000000128
 30
0.0
 11
191.50000000000006
 21
-75.0
 31
0.0
  0
LINE
  5
53
100
AcDbEntity
100
AcDbLine
  8
0
 62
256
370
-1
  6
BYLAYER
 10
191.50000000000003
 20
-25.000000000000096
 30
0.0
 11
188.49999999999997
 21
-25.000000000000036
 31
0.0
  0
LINE
  5
54
100
AcDbEntity
100
AcDbLine
  8
0
 62
256
370
-1
  6
BYLAYER
 10
188.49999999999997
 20
-25.000000000000036
 30
0.0
 11
188.50000000000003
 21
-34.999999999999972
 31
0.0
  0
LINE
  5
55
100
AcDbEntity
100
AcDbLine
  8
0
 62
256
370
-1
  6
BYLAYER
 10
188.50000000000003
 20
-34.999999999999972
 30
0.0
 11
191.5
 21
-35.000000000000014
 31
0.0
  0
LINE
  5
56
100
AcDbEntity
100
AcDbLine
  8
0
 62
256
370
-1
  6
BYLAYER
 10
191.5
 20
-35.000000000000014
 30
0.0
 11
191.50000000000003
 21
-25.000000000000096
 31
0.0
  0
LINE
  5
57
100
AcDbEntity
100
AcDbLine
  8
0
 62
256
370
-1
  6
BYLAYER
 10
191.50000000000006
 20
-75.0
 30
0.0
 11
191.50000000000009
 21
-65.000000000000085
 31
0.0
  0
LINE
  5
58
100
AcDbEntity
100
AcDbLine
  8
0
 62
256
370
-1
  6
BYLAYER
 10
114.99999999999997
 20
-91.500000000000057
 30
0.0
 11
124.99999999999994
 21
-91.500000000000057
 31
0.0
  0
LINE
  5
59
100
AcDbEntity
100
AcDbLine
  8
0
 62
256
370
-1
  6
BYLAYER
 10
74.999999999999986
 20
-91.499999999999957
 30
0.0
 11
84.999999999999972
 21
-91.500000000000028
 31
0.0
  0
LINE
  5
5A
100
AcDbEntity
100
AcDbLine
  8
0
 62
256
370
-1
  6
BYLAYER
 10
94.999999999999929
 20
-88.500000000000028
 30
0.0
 11
95.0
 21
-91.499999999999972
 31
0.0
  0
LINE
  5
5B
100
AcDbEntity
100
AcDbLine
  8
0
 62
256
370
-1
  6
BYLAYER
 10
108.5
 20
-8.5000000000000107
 30
0.0
 11
118.5
 21
-8.5000000000000071
 31
0.0
  0
LINE
  5
5C
100
AcDbEntity
100
AcDbLine
  8
0
 62
256
370
-1
  6
BYLAYER
 10
98.499999999999986
 20
-8.5000000000000586
 30
0.0
 11
98.499999999999986
 21
-11.500000000000002
 31
0.0
  0
LINE
  5
5D
100
AcDbEntity
100
AcDbLine
  8
0
 62
256
370
-1
  6
BYLAYER
 10
68.499999999999986
 20
-8.5000000000000107
 30
0.0
 11
78.499999999999986
 21
-8.5000000000000071
 31
0.0
  0
LINE
  5
5E
100
AcDbEntity
100
AcDbLine
  8
0
 62
256
370
-1
  6
BYLAYER
 10
88.499999999999986
 20
-11.500000000000012
 30
0.0
 11
88.499999999999986
 21
-8.5000000000000409
 31
0.0
  0
LINE
  5
5F
100
AcDbEntity
100
AcDbLine
  8
0
 62
256
370
-1
  6
BYLAYER
 10
78.499999999999986
 20
-8.5000000000000071
 30
0.0
 11
78.499999999999986
 21
-11.500000000000005
 31
0.0
  0
LINE
  5
60
100
AcDbEntity
100
AcDbLine
  8
0
 62
256
370
-1
  6
BYLAYER
 10
78.499999999999986
 20
-11.500000000000005
 30
0.0
 11
68.499999999999986
 21
-11.500000000000004
 31
0.0
  0
LINE
  5
61
100
AcDbEntity
100
AcDbLine
  8
0
 62
256
370
-1
  6
BYLAYER
 10
68.499999999999986
 20
-11.500000000000004
 30
0.0
 11
68.499999999999986
 21
-8.5000000000000107
 31
0.0
  0
LINE
  5
62
100
AcDbEntity
100
AcDbLine
  8
0
 62
256
370
-1
  6
BYLAYER
 10
118.5
 20
-8.5000000000000071
 30
0.0
 11
118.5
 21
-11.500000000000014
 31
0.0
  0
LINE
  5
63
100
AcDbEntity
100
AcDbLine
  8
0
 62
256
370
-1
  6
BYLAYER
 10
38.499999999999993
 20
-11.499999999999956
 30
0.0
 11
38.5
 21
-8.5000000000000231
 31
0.0
  0
LINE
  5
64
100
AcDbEntity
100
AcDbLine
  8
0
 62
256
370
-1
  6
BYLAYER
 10
118.5
 20
-11.500000000000014
 30
0.0
 11
108.49999999999997
 21
-11.500000000000002
 31
0.0
  0
LINE
  5
65
100
AcDbEntity
100
AcDbLine
  8
0
 62
256
370
-1
  6
BYLAYER
 10
108.49999999999997
 20
-11.500000000000002
 30
0.0
 11
108.5
 21
-8.5000000000000107
 31
0.0
  0
ARC
  5
66
100
AcDbEntity
  8
0
 62
256
370
-1
  6
BYLAYER
100
AcDbCircle
 10
4.9999999999998783
 20
-95.0
 30
0.0
 40
5.0
100
AcDbArc
 50
180.0
 51
270.0
  0
ARC
  5
67
100
AcDbEntity
  8
0
 62
256
370
-1
  6
BYLAYER
100
AcDbCircle
 10
4.9999999999999991
 20
-5.0000000000000009
 30
0.0
 40
5.0
100
AcDbArc
 50
90.0
 51
180.0
  0
ARC
  5
68
100
AcDbEntity
  8
0
 62
256
370
-1
  6
BYLAYER
100
AcDbCircle
 10
194.99999999999997
 20
-4.9999999999999982
 30
0.0
 40
5.0
100
AcDbArc
 50
0.0
 51
90.0
  0
ARC
  5
69
100
AcDbEntity
  8
0
 62
256
370
-1
  6
BYLAYER
100
AcDbCircle
 10
194.99999999999989
 20
-95.000000000000227
 30
0.0
 40
5.0
100
AcDbArc
 50
270.0
 51
0.0
  0
CIRCLE
  5
6A
100
AcDbEntity
100
AcDbCircle
  8
0
 62
256
370
-1
  6
BYLAYER
 10
194.99999999999997
 20
-4.9999999999999982
 30
0.0
 40
1.5
  0
CIRCLE
  5
6B
100
AcDbEntity
100
AcDbCircle
  8
0
 62
256
370
-1
  6
BYLAYER
 10
194.99999999999977
 20
-95.000000000000185
 30
0.0
 40
1.5
  0
CIRCLE
  5
6C
100
AcDbEntity
100
AcDbCircle
  8
0
 62
256
370
-1
  6
BYLAYER
 10
4.9999999999999973
 20
-5.0000000000000089
 30
0.0
 40
1.5
  0
CIRCLE
  5
6D
100
AcDbEntity
100
AcDbCircle
  8
0
 62
256
370
-1
  6
BYLAYER
 10
4.9999999999998783
 20
-95.0
 30
0.0
 40
1.5
  0
LINE
  5
6E
100
AcDbEntity
100
AcDbLine
  8
0
 62
256
370
-1
  6
BYLAYER
 10
199.99999999999997
 20
-95.000000000000085
 30
0.0
 11
200.00000000000006
 21
-5.0000000000000817
 31
0.0
  0
LINE
  5
6F
100
AcDbEntity
100
AcDbLine
  8
0
 62
256
370
-1
  6
BYLAYER
 10
195.0
 20
-0.0000000000000478
 30
0.0
 11
5.0
 21
-0.0000000000000012
 31
0.0
  0
LINE
  5
70
100
AcDbEntity
100
AcDbLine
  8
0
 62
256
370
-1
  6
BYLAYER
 10
200.00000000000006
 20
-5.0000000000000817
 30
0.0
 11
200.0
 21
-20.000000000000014
 31
0.0
  0
CIRCLE
  5
71
100
AcDbEntity
100
AcDbCircle
  8
0
 62
256
370
-1
  6
BYLAYER
 10
113.50000000000001
 20
-34.250000000000028
 30
0.0
 40
1.0
  0
CIRCLE
  5
72
100
AcDbEntity
100
AcDbCircle
  8
0
 62
256
370
-1
  6
BYLAYER
 10
113.5
 20
-65.750000000000057
 30
0.0
 40
1.0
  0
CIRCLE
  5
73
100
AcDbEntity
100
AcDbCircle
  8
0
 62
256
370
-1
  6
BYLAYER
 10
86.500000000000014
 20
-34.25
 30
0.0
 40
1.0
  0
CIRCLE
  5
74
100
AcDbEntity
100
AcDbCircle
  8
0
 62
256
370
-1
  6
BYLAYER
 10
86.499999999999986
 20
-65.750000000000014
 30
0.0
 40
1.0
  0
CIRCLE
  5
75
100
AcDbEntity
100
AcDbCircle
  8
0
 62
256
370
-1
  6
BYLAYER
 10
53.499999999999936
 20
-65.750000000000043
 30
0.0
 40
1.0
  0
CIRCLE
  5
76
100
AcDbEntity
100
AcDbCircle
  8
0
 62
256
370
-1
  6
BYLAYER
 10
26.499999999999979
 20
-34.250000000000014
 30
0.0
 40
1.0
  0
CIRCLE
  5
77
100
AcDbEntity
100
AcDbCircle
  8
0
 62
256
370
-1
  6
BYLAYER
 10
180.0
 20
-20.000000000000085
 30
0.0
 40
1.0
  0
CIRCLE
  5
78
100
AcDbEntity
100
AcDbCircle
  8
0
 62
256
370
-1
  6
BYLAYER
 10
179.99999999999997
 20
-51.500000000000107
 30
0.0
 40
1.0
  0
CIRCLE
  5
79
100
AcDbEntity
100
AcDbCircle
  8
0
 62
256
370
-1
  6
BYLAYER
 10
153.0
 20
-19.999999999999996
 30
0.0
 40
1.0
  0
CIRCLE
  5
7A
100
AcDbEntity
100
AcDbCircle
  8
0
 62
256
370
-1
  6
BYLAYER
 10
152.99999999999997
 20
-51.500000000000078
 30
0.0
 40
1.0
  0
CIRCLE
  5
7B
100
AcDbEntity
100
AcDbCircle
  8
0
 62
256
370
-1
  6
BYLAYER
 10
152.99999999999997
 20
-82.999999999999986
 30
0.0
 40
1.0
  0
CIRCLE
  5
7C
100
AcDbEntity
100
AcDbCircle
  8
0
 62
256
370
-1
  6
BYLAYER
 10
179.99999999999991
 20
-83.000000000000171
 30
0.0
 40
1.0
  0
LINE
  5
7D
100
AcDbEntity
100
AcDbLine
  8
0
 62
256
370
-1
  6
BYLAYER
 10
91.999999999999986
 20
-5.00000000000004
 30
0.0
 11
95.0
 21
-5.0000000000000027
 31
0.0
  0
LINE
  5
7E
100
AcDbEntity
100
AcDbLine
  8
0
 62
256
370
-1
  6
BYLAYER
 10
92.000000000000014
 20
-34.999999999999993
 30
0.0
 11
91.999999999999986
 21
-25.000000000000014
 31
0.0
  0
LINE
  5
7F
100
AcDbEntity
100
AcDbLine
  8
0
 62
256
370
-1
  6
BYLAYER
 10
94.999999999999986
 20
-15.000000000000009
 30
0.0
 11
91.999999999999986
 21
-15.00000000000002
 31
0.0
  0
LINE
  5
80
100
AcDbEntity
100
AcDbLine
  8
0
 62
256
370
-1
  6
BYLAYER
 10
91.999999999999986
 20
-25.000000000000014
 30
0.0
 11
95.0
 21
-24.999999999999968
 31
0.0
  0
LINE
  5
81
100
AcDbEntity
100
AcDbLine
  8
0
 62
256
370
-1
  6
BYLAYER
 10
95.0
 20
-24.999999999999968
 30
0.0
 11
95.0
 21
-35.000000000000007
 31
0.0
  0
LINE
  5
82
100
AcDbEntity
100
AcDbLine
  8
0
 62
256
370
-1
  6
BYLAYER
 10
95.0
 20
-35.000000000000007
 30
0.0
 11
92.000000000000014
 21
-34.999999999999993
 31
0.0
  0
LINE
  5
83
100
AcDbEntity
100
AcDbLine
  8
0
 62
256
370
-1
  6
BYLAYER
 10
98.499999999999986
 20
-64.999999999999972
 30
0.0
 11
101.49999999999997
 21
-65.000000000000043
 31
0.0
  0
LINE
  5
84
100
AcDbEntity
100
AcDbLine
  8
0
 62
256
370
-1
  6
BYLAYER
 10
98.499999999999886
 20
-75.000000000000099
 30
0.0
 11
98.499999999999986
 21
-64.999999999999972
 31
0.0
  0
LINE
  5
85
100
AcDbEntity
100
AcDbLine
  8
0
 62
256
370
-1
  6
BYLAYER
 10
98.500000000000014
 20
-84.999999999999986
 30
0.0
 11
101.49999999999997
 21
-85.000000000000028
 31
0.0
  0
LINE
  5
86
100
AcDbEntity
100
AcDbLine
  8
0
 62
256
370
-1
  6
BYLAYER
 10
101.49999999999989
 20
-95.000000000000114
 30
0.0
 11
98.499999999999943
 21
-95.000000000000057
 31
0.0
  0
LINE
  5
87
100
AcDbEntity
100
AcDbLine
  8
0
 62
256
370
-1
  6
BYLAYER
 10
101.49999999999997
 20
-65.000000000000043
 30
0.0
 11
101.49999999999993
 21
-75.000000000000114
 31
0.0
  0
LINE
  5
88
100
AcDbEntity
100
AcDbLine
  8
0
 62
256
370
-1
  6
BYLAYER
 10
101.49999999999993
 20
-75.000000000000114
 30
0.0
 11
98.500000000000057
 21
-74.999999999999943
 31
0.0
  0
LINE
  5
89
100
AcDbEntity
100
AcDbLine
  8
0
 62
256
370
-1
  6
BYLAYER
 10
194.99999999999994
 20
-48.500000000000021
 30
0.0
 11
195.0
 21
-51.499999999999957
 31
0.0
  0
LINE
  5
8A
100
AcDbEntity
100
AcDbLine
  8
0
 62
256
370
-1
  6
BYLAYER
 10
165.0
 20
-48.500000000000028
 30
0.0
 11
175.0
 21
-48.5
 31
0.0
  0
LINE
  5
8B
100
AcDbEntity
100
AcDbLine
  8
0
 62
256
370
-1
  6
BYLAYER
 10
184.99999999999994
 20
-51.500000000000121
 30
0.0
 11
185.0
 21
-48.500000000000036
 31
0.0
  0
LINE
  5
8C
100
AcDbEntity
100
AcDbLine
  8
0
 62
256
370
-1
  6
BYLAYER
 10
175.0
 20
-48.5
 30
0.0
 11
174.99999999999994
 21
-51.500000000000021
 31
0.0
  0
LINE
  5
8D
100
AcDbEntity
100
AcDbLine
  8
0
 62
256
370
-1
  6
BYLAYER
 10
174.99999999999994
 20
-51.500000000000021
 30
0.0
 11
164.99999999999997
 21
-51.500000000000107
 31
0.0
  0
LINE
  5
8E
100
AcDbEntity
100
AcDbLine
  8
0
 62
256
370
-1
  6
BYLAYER
 10
164.99999999999997
 20
-51.500000000000107
 30
0.0
 11
165.0
 21
-48.500000000000028
 31
0.0
  0
LINE
  5
8F
100
AcDbEntity
100
AcDbLine
  8
0
 62
256
370
-1
  6
BYLAYER
 10
191.49999999999997
 20
-55.000000000000021
 30
0.0
 11
191.50000000000003
 21
-51.500000000000085
 31
0.0
  0
LINE
  5
90
100
AcDbEntity
100
AcDbLine
  8
0
 62
256
370
-1
  6
BYLAYER
 10
191.5
 20
-48.500000000000043
 30
0.0
 11
191.5
 21
-44.999999999999908
 31
0.0
  0
LINE
  5
91
100
AcDbEntity
100
AcDbLine
  8
0
 62
256
370
-1
  6
BYLAYER
 10
185.0
 20
-48.500000000000036
 30
0.0
 11
188.5
 21
-48.500000000000085
 31
0.0
  0
LINE
  5
92
100
AcDbEntity
100
AcDbLine
  8
0
 62
256
370
-1
  6
BYLAYER
 10
191.5
 20
-48.500000000000043
 30
0.0
 11
194.99999999999994
 21
-48.500000000000021
 31
0.0
  0
LINE
  5
93
100
AcDbEntity
100
AcDbLine
  8
0
 62
256
370
-1
  6
BYLAYER
 10
188.49999999999997
 20
-45.000000000000156
 30
0.0
 11
188.5
 21
-48.500000000000085
 31
0.0
  0
LINE
  5
94
100
AcDbEntity
100
AcDbLine
  8
0
 62
256
370
-1
  6
BYLAYER
 10
188.50000000000003
 20
-51.499999999999943
 30
0.0
 11
188.5
 21
-55.000000000000007
 31
0.0
  0
LINE
  5
95
100
AcDbEntity
100
AcDbLine
  8
0
 62
256
370
-1
  6
BYLAYER
 10
195.0
 20
-51.499999999999957
 30
0.0
 11
191.50000000000003
 21
-51.500000000000085
 31
0.0
  0
LINE
  5
96
100
AcDbEntity
100
AcDbLine
  8
0
 62
256
370
-1
  6
BYLAYER
 10
188.50000000000003
 20
-51.499999999999943
 30
0.0
 11
184.99999999999994
 21
-51.500000000000121
 31
0.0
  0
LINE
  5
97
100
AcDbEntity
100
AcDbLine
  8
0
 62
256
370
-1
  6
BYLAYER
 10
88.499999999999986
 20
-8.5000000000000409
 30
0.0
 11
91.999999999999986
 21
-8.5000000000000231
 31
0.0
  0
LINE
  5
98
100
AcDbEntity
100
AcDbLine
  8
0
 62
256
370
-1
  6
BYLAYER
 10
95.0
 20
-5.0000000000000027
 30
0.0
 11
95.0
 21
-8.500000000000032
 31
0.0
  0
LINE
  5
99
100
AcDbEntity
100
AcDbLine
  8
0
 62
256
370
-1
  6
BYLAYER
 10
98.499999999999986
 20
-11.500000000000002
 30
0.0
 11
95.000000000000014
 21
-11.499999999999988
 31
0.0
  0
LINE
  5
9A
100
AcDbEntity
100
AcDbLine
  8
0
 62
256
370
-1
  6
BYLAYER
 10
91.999999999999986
 20
-11.500000000000046
 30
0.0
 11
88.499999999999986
 21
-11.500000000000012
 31
0.0
  0
LINE
  5
9B
100
AcDbEntity
100
AcDbLine
  8
0
 62
256
370
-1
  6
BYLAYER
 10
95.000000000000014
 20
-11.499999999999988
 30
0.0
 11
94.999999999999986
 21
-15.000000000000009
 31
0.0
  0
LINE
  5
9C
100
AcDbEntity
100
AcDbLine
  8
0
 62
256
370
-1
  6
BYLAYER
 10
95.0
 20
-8.500000000000032
 30
0.0
 11
98.499999999999986
 21
-8.5000000000000586
 31
0.0
  0
LINE
  5
9D
100
AcDbEntity
100
AcDbLine
  8
0
 62
256
370
-1
  6
BYLAYER
 10
91.999999999999986
 20
-15.00000000000002
 30
0.0
 11
91.999999999999986
 21
-11.500000000000046
 31
0.0
  0
LINE
  5
9E
100
AcDbEntity
100
AcDbLine
  8
0
 62
256
370
-1
  6
BYLAYER
 10
91.999999999999986
 20
-8.5000000000000231
 30
0.0
 11
91.999999999999986
 21
-5.00000000000004
 31
0.0
  0
LINE
  5
9F
100
AcDbEntity
100
AcDbLine
  8
0
 62
256
370
-1
  6
BYLAYER
 10
95.000000000000014
 20
-91.5
 30
0.0
 11
98.499999999999915
 21
-91.500000000000071
 31
0.0
  0
LINE
  5
A0
100
AcDbEntity
100
AcDbLine
  8
0
 62
256
370
-1
  6
BYLAYER
 10
101.49999999999999
 20
-91.500000000000014
 30
0.0
 11
104.99999999999993
 21
-91.500000000000099
 31
0.0
  0
LINE
  5
A1
100
AcDbEntity
100
AcDbLine
  8
0
 62
256
370
-1
  6
BYLAYER
 10
101.49999999999997
 20
-85.000000000000028
 30
0.0
 11
101.49999999999997
 21
-88.500000000000071
 31
0.0
  0
LINE
  5
A2
100
AcDbEntity
100
AcDbLine
  8
0
 62
256
370
-1
  6
BYLAYER
 10
101.49999999999999
 20
-91.500000000000014
 30
0.0
 11
101.49999999999989
 21
-95.000000000000114
 31
0.0
  0
LINE
  5
A3
100
AcDbEntity
100
AcDbLine
  8
0
 62
256
370
-1
  6
BYLAYER
 10
105.00000000000003
 20
-88.500000000000014
 30
0.0
 11
101.49999999999997
 21
-88.500000000000071
 31
0.0
  0
LINE
  5
A4
100
AcDbEntity
100
AcDbLine
  8
0
 62
256
370
-1
  6
BYLAYER
 10
98.499999999999957
 20
-88.500000000000028
 30
0.0
 11
94.999999999999929
 21
-88.500000000000028
 31
0.0
  0
LINE
  5
A5
100
AcDbEntity
100
AcDbLine
  8
0
 62
256
370
-1
  6
BYLAYER
 10
98.499999999999943
 20
-95.000000000000057
 30
0.0
 11
98.499999999999915
 21
-91.500000000000071
 31
0.0
  0
LINE
  5
A6
100
AcDbEntity
100
AcDbLine
  8
0
 62
256
370
-1
  6
BYLAYER
 10
98.499999999999957
 20
-88.500000000000028
 30
0.0
 11
98.500000000000014
 21
-84.999999999999986
 31
0.0
  0
LINE
  5
A7
100
AcDbEntity
100
AcDbLine
  8
0
 62
256
370
-1
  6
BYLAYER
 10
34.999999999999957
 20
-48.500000000000014
 30
0.0
 11
34.999999999999943
 21
-51.500000000000036
 31
0.0
  0
LINE
  5
A8
100
AcDbEntity
100
AcDbLine
  8
0
 62
256
370
-1
  6
BYLAYER
 10
28.499999999999922
 20
-48.500000000000036
 30
0.0
 11
28.499999999999972
 21
-45.000000000000014
 31
0.0
  0
LINE
  5
A9
100
AcDbEntity
100
AcDbLine
  8
0
 62
256
370
-1
  6
BYLAYER
 10
4.9999999999998561
 20
-48.5
 30
0.0
 11
14.999999999999963
 21
-48.499999999999993
 31
0.0
  0
LINE
  5
AA
100
AcDbEntity
100
AcDbLine
  8
0
 62
256
370
-1
  6
BYLAYER
 10
24.999999999999918
 20
-51.500000000000021
 30
0.0
 11
24.999999999999947
 21
-48.500000000000014
 31
0.0
  0
LINE
  5
AB
100
AcDbEntity
100
AcDbLine
  8
0
 62
256
370
-1
  6
BYLAYER
 10
14.999999999999964
 20
-48.5
 30
0.0
 11
15.000000000000007
 21
-51.499999999999993
 31
0.0
  0
LINE
  5
AC
100
AcDbEntity
100
AcDbLine
  8
0
 62
256
370
-1
  6
BYLAYER
 10
15.000000000000007
 20
-51.499999999999993
 30
0.0
 11
4.9999999999999343
 21
-51.500000000000007
 31
0.0
  0
LINE
  5
AD
100
AcDbEntity
100
AcDbLine
  8
0
 62
256
370
-1
  6
BYLAYER
 10
4.9999999999999343
 20
-51.500000000000007
 30
0.0
 11
4.9999999999998561
 21
-48.5
 31
0.0
  0
LINE
  5
AE
100
AcDbEntity
100
AcDbLine
  8
0
 62
256
370
-1
  6
BYLAYER
 10
54.999999999999964
 20
-48.500000000000036
 30
0.0
 11
54.99999999999995
 21
-51.500000000000057
 31
0.0
  0
LINE
  5
AF
100
AcDbEntity
100
AcDbLine
  8
0
 62
256
370
-1
  6
BYLAYER
 10
28.499999999999972
 20
-45.000000000000014
 30
0.0
 11
31.500000000000004
 21
-44.999999999999993
 31
0.0
  0
LINE
  5
B0
100
AcDbEntity
100
AcDbLine
  8
0
 62
256
370
-1
  6
BYLAYER
 10
28.499999999999893
 20
-75.000000000000028
 30
0.0
 11
28.499999999999975
 21
-65.000000000000014
 31
0.0
  0
LINE
  5
B1
100
AcDbEntity
100
AcDbLine
  8
0
 62
256
370
-1
  6
BYLAYER
 10
31.499999999999972
 20
-55.000000000000014
 30
0.0
 11
28.500000000000004
 21
-55.0
 31
0.0
  0
LINE
  5
B2
100
AcDbEntity
100
AcDbLine
  8
0
 62
256
370
-1
  6
BYLAYER
 10
28.499999999999975
 20
-65.000000000000014
 30
0.0
 11
31.500000000000025
 21
-64.999999999999986
 31
0.0
  0
LINE
  5
B3
100
AcDbEntity
100
AcDbLine
  8
0
 62
256
370
-1
  6
BYLAYER
 10
54.99999999999995
 20
-51.500000000000057
 30
0.0
 11
44.999999999999972
 21
-51.500000000000028
 31
0.0
  0
LINE
  5
B4
100
AcDbEntity
100
AcDbLine
  8
0
 62
256
370
-1
  6
BYLAYER
 10
31.500000000000025
 20
-64.999999999999986
 30
0.0
 11
31.499999999999908
 21
-75.000000000000028
 31
0.0
  0
LINE
  5
B5
100
AcDbEntity
100
AcDbLine
  8
0
 62
256
370
-1
  6
BYLAYER
 10
44.999999999999972
 20
-51.500000000000028
 30
0.0
 11
44.999999999999943
 21
-48.500000000000057
 31
0.0
  0
LINE
  5
B6
100
AcDbEntity
100
AcDbLine
  8
0
 62
256
370
-1
  6
BYLAYER
 10
31.499999999999908
 20
-75.000000000000028
 30
0.0
 11
28.499999999999893
 21
-75.000000000000028
 31
0.0
  0
LINE
  5
B7
100
AcDbEntity
100
AcDbLine
  8
0
 62
256
370
-1
  6
BYLAYER
 10
24.99999999999994
 20
-48.5
 30
0.0
 11
28.499999999999922
 21
-48.500000000000036
 31
0.0
  0
LINE
  5
B8
100
AcDbEntity
100
AcDbLine
  8
0
 62
256
370
-1
  6
BYLAYER
 10
31.500000000000004
 20
-44.999999999999993
 30
0.0
 11
31.499999999999975
 21
-48.500000000000007
 31
0.0
  0
LINE
  5
B9
100
AcDbEntity
100
AcDbLine
  8
0
 62
256
370
-1
  6
BYLAYER
 10
28.499999999999968
 20
-25.000000000000021
 30
0.0
 11
28.499999999999968
 21
-35.000000000000014
 31
0.0
  0
LINE
  5
BA
100
AcDbEntity
100
AcDbLine
  8
0
 62
256
370
-1
  6
BYLAYER
 10
28.499999999999968
 20
-35.000000000000014
 30
0.0
 11
31.5
 21
-35.0
 31
0.0
  0
LINE
  5
BB
100
AcDbEntity
100
AcDbLine
  8
0
 62
256
370
-1
  6
BYLAYER
 10
31.5
 20
-35.0
 30
0.0
 11
31.499999999999989
 21
-24.999999999999989
 31
0.0
  0
LINE
  5
BC
100
AcDbEntity
100
AcDbLine
  8
0
 62
256
370
-1
  6
BYLAYER
 10
31.499999999999989
 20
-24.999999999999989
 30
0.0
 11
28.499999999999968
 21
-25.000000000000021
 31
0.0
  0
LINE
  5
BD
100
AcDbEntity
100
AcDbLine
  8
0
 62
256
370
-1
  6
BYLAYER
 10
34.999999999999943
 20
-51.500000000000036
 30
0.0
 11
31.499999999999982
 21
-51.5
 31
0.0
  0
LINE
  5
BE
100
AcDbEntity
100
AcDbLine
  8
0
 62
256
370
-1
  6
BYLAYER
 10
28.499999999999972
 20
-51.500000000000021
 30
0.0
 11
24.999999999999918
 21
-51.500000000000021
 31
0.0
  0
LINE
  5
BF
100
AcDbEntity
100
AcDbLine
  8
0
 62
256
370
-1
  6
BYLAYER
 10
31.499999999999982
 20
-51.5
 30
0.0
 11
31.499999999999972
 21
-55.000000000000014
 31
0.0
  0
LINE
  5
C0
100
AcDbEntity
100
AcDbLine
  8
0
 62
256
370
-1
  6
BYLAYER
 10
31.499999999999975
 20
-48.500000000000007
 30
0.0
 11
34.999999999999993
 21
-48.499999999999979
 31
0.0
  0
LINE
  5
C1
100
AcDbEntity
100
AcDbLine
  8
0
 62
256
370
-1
  6
BYLAYER
 10
44.999999999999936
 20
-48.50000000000005
 30
0.0
 11
54.999999999999964
 21
-48.500000000000036
 31
0.0
  0
LINE
  5
C2
100
AcDbEntity
100
AcDbLine
  8
0
 62
256
370
-1
  6
BYLAYER
 10
28.500000000000004
 20
-55.0
 30
0.0
 11
28.499999999999972
 21
-51.500000000000021
 31
0.0
  0
LINE
  5
C3
100
AcDbEntity
100
AcDbLine
  8
0
 62
256
370
-1
  6
BYLAYER
 10
105.0
 20
-48.499999999999993
 30
0.0
 11
104.99999999999993
 21
-51.500000000000057
 31
0.0
  0
LINE
  5
C4
100
AcDbEntity
100
AcDbLine
  8
0
 62
256
370
-1
  6
BYLAYER
 10
98.499999999999957
 20
-48.500000000000064
 30
0.0
 11
98.499999999999943
 21
-45.000000000000028
 31
0.0
  0
LINE
  5
C5
100
AcDbEntity
100
AcDbLine
  8
0
 62
256
370
-1
  6
BYLAYER
 10
74.999999999999929
 20
-48.500000000000085
 30
0.0
 11
84.999999999999986
 21
-48.500000000000007
 31
0.0
  0
LINE
  5
C6
100
AcDbEntity
100
AcDbLine
  8
0
 62
256
370
-1
  6
BYLAYER
 10
94.999999999999986
 20
-51.500000000000014
 30
0.0
 11
95.0
 21
-48.499999999999972
 31
0.0
  0
LINE
  5
C7
100
AcDbEntity
100
AcDbLine
  8
0
 62
256
370
-1
  6
BYLAYER
 10
84.999999999999986
 20
-48.500000000000007
 30
0.0
 11
84.999999999999943
 21
-51.500000000000071
 31
0.0
  0
LINE
  5
C8
100
AcDbEntity
100
AcDbLine
  8
0
 62
256
370
-1
  6
BYLAYER
 10
84.999999999999943
 20
-51.500000000000071
 30
0.0
 11
74.999999999999943
 21
-51.500000000000057
 31
0.0
  0
LINE
  5
C9
100
AcDbEntity
100
AcDbLine
  8
0
 62
256
370
-1
  6
BYLAYER
 10
74.999999999999943
 20
-51.500000000000057
 30
0.0
 11
74.999999999999929
 21
-48.500000000000085
 31
0.0
  0
LINE
  5
CA
100
AcDbEntity
100
AcDbLine
  8
0
 62
256
370
-1
  6
BYLAYER
 10
124.99999999999997
 20
-48.50000000000005
 30
0.0
 11
124.99999999999999
 21
-51.500000000000057
 31
0.0
  0
LINE
  5
CB
100
AcDbEntity
100
AcDbLine
  8
0
 62
256
370
-1
  6
BYLAYER
 10
98.499999999999972
 20
-45.000000000000043
 30
0.0
 11
101.49999999999997
 21
-45.00000000000005
 31
0.0
  0
LINE
  5
CC
100
AcDbEntity
100
AcDbLine
  8
0
 62
256
370
-1
  6
BYLAYER
 10
98.499999999999901
 20
-75.000000000000114
 30
0.0
 11
98.499999999999929
 21
-65.000000000000057
 31
0.0
  0
LINE
  5
CD
100
AcDbEntity
100
AcDbLine
  8
0
 62
256
370
-1
  6
BYLAYER
 10
101.49999999999996
 20
-55.000000000000071
 30
0.0
 11
98.499999999999972
 21
-55.000000000000021
 31
0.0
  0
LINE
  5
CE
100
AcDbEntity
100
AcDbLine
  8
0
 62
256
370
-1
  6
BYLAYER
 10
98.499999999999929
 20
-65.000000000000057
 30
0.0
 11
101.49999999999997
 21
-65.000000000000043
 31
0.0
  0
LINE
  5
CF
100
AcDbEntity
100
AcDbLine
  8
0
 62
256
370
-1
  6
BYLAYER
 10
124.99999999999999
 20
-51.500000000000057
 30
0.0
 11
114.99999999999999
 21
-51.500000000000043
 31
0.0
  0
LINE
  5
D0
100
AcDbEntity
100
AcDbLine
  8
0
 62
256
370
-1
  6
BYLAYER
 10
101.49999999999997
 20
-65.000000000000043
 30
0.0
 11
101.4999999999999
 21
-75.000000000000099
 31
0.0
  0
LINE
  5
D1
100
AcDbEntity
100
AcDbLine
  8
0
 62
256
370
-1
  6
BYLAYER
 10
114.99999999999999
 20
-51.500000000000043
 30
0.0
 11
115.0
 21
-48.500000000000028
 31
0.0
  0
LINE
  5
D2
100
AcDbEntity
100
AcDbLine
  8
0
 62
256
370
-1
  6
BYLAYER
 10
101.4999999999999
 20
-75.000000000000099
 30
0.0
 11
98.499999999999901
 21
-75.000000000000114
 31
0.0
  0
LINE
  5
D3
100
AcDbEntity
100
AcDbLine
  8
0
 62
256
370
-1
  6
BYLAYER
 10
95.0
 20
-48.499999999999972
 30
0.0
 11
98.499999999999957
 21
-48.500000000000064
 31
0.0
  0
LINE
  5
D4
100
AcDbEntity
100
AcDbLine
  8
0
 62
256
370
-1
  6
BYLAYER
 10
101.49999999999997
 20
-45.00000000000005
 30
0.0
 11
101.49999999999996
 21
-48.500000000000114
 31
0.0
  0
LINE
  5
D5
100
AcDbEntity
100
AcDbLine
  8
0
 62
256
370
-1
  6
BYLAYER
 10
98.499999999999986
 20
-24.999999999999993
 30
0.0
 11
98.499999999999972
 21
-35.00000000000005
 31
0.0
  0
LINE
  5
D6
100
AcDbEntity
100
AcDbLine
  8
0
 62
256
370
-1
  6
BYLAYER
 10
98.499999999999972
 20
-35.00000000000005
 30
0.0
 11
101.5
 21
-35.000000000000014
 31
0.0
  0
LINE
  5
D7
100
AcDbEntity
100
AcDbLine
  8
0
 62
256
370
-1
  6
BYLAYER
 10
101.5
 20
-35.000000000000014
 30
0.0
 11
101.49999999999999
 21
-25.000000000000018
 31
0.0
  0
LINE
  5
D8
100
AcDbEntity
100
AcDbLine
  8
0
 62
256
370
-1
  6
BYLAYER
 10
101.49999999999999
 20
-25.000000000000018
 30
0.0
 11
98.499999999999986
 21
-24.999999999999993
 31
0.0
  0
LINE
  5
D9
100
AcDbEntity
100
AcDbLine
  8
0
 62
256
370
-1
  6
BYLAYER
 10
104.99999999999993
 20
-51.500000000000057
 30
0.0
 11
101.49999999999993
 21
-51.500000000000099
 31
0.0
  0
LINE
  5
DA
100
AcDbEntity
100
AcDbLine
  8
0
 62
256
370
-1
  6
BYLAYER
 10
98.499999999999986
 20
-51.499999999999986
 30
0.0
 11
94.999999999999986
 21
-51.500000000000014
 31
0.0
  0
LINE
  5
DB
100
AcDbEntity
100
AcDbLine
  8
0
 62
256
370
-1
  6
BYLAYER
 10
101.49999999999993
 20
-51.500000000000099
 30
0.0
 11
101.49999999999996
 21
-55.000000000000071
 31
0.0
  0
LINE
  5
DC
100
AcDbEntity
100
AcDbLine
  8
0
 62
256
370
-1
  6
BYLAYER
 10
101.49999999999996
 20
-48.500000000000114
 30
0.0
 11
105.0
 21
-48.499999999999993
 31
0.0
  0
LINE
  5
DD
100
AcDbEntity
100
AcDbLine
  8
0
 62
256
370
-1
  6
BYLAYER
 10
115.0
 20
-48.500000000000028
 30
0.0
 11
124.99999999999997
 21
-48.50000000000005
 31
0.0
  0
LINE
  5
DE
100
AcDbEntity
100
AcDbLine
  8
0
 62
256
370
-1
  6
BYLAYER
 10
98.499999999999972
 20
-55.000000000000021
 30
0.0
 11
98.499999999999986
 21
-51.499999999999986
 31
0.0
  0
LINE
  5
DF
100
AcDbEntity
100
AcDbLine
  8
0
 62
256
370
-1
  6
BYLAYER
 10
44.999999999999986
 20
-28.499999999999986
 30
0.0
 11
44.999999999999972
 21
-31.500000000000014
 31
0.0
  0
LINE
  5
E0
100
AcDbEntity
100
AcDbLine
  8
0
 62
256
370
-1
  6
BYLAYER
 10
38.49999999999995
 20
-28.500000000000039
 30
0.0
 11
38.499999999999986
 21
-24.999999999999996
 31
0.0
  0
LINE
  5
E1
100
AcDbEntity
100
AcDbLine
  8
0
 62
256
370
-1
  6
BYLAYER
 10
14.999999999999966
 20
-28.5
 30
0.0
 11
24.999999999999979
 21
-28.499999999999996
 31
0.0
  0
LINE
  5
E2
100
AcDbEntity
100
AcDbLine
  8
0
 62
256
370
-1
  6
BYLAYER
 10
34.999999999999979
 20
-31.500000000000004
 30
0.0
 11
34.999999999999957
 21
-28.500000000000043
 31
0.0
  0
LINE
  5
E3
100
AcDbEntity
100
AcDbLine
  8
0
 62
256
370
-1
  6
BYLAYER
 10
24.999999999999982
 20
-28.500000000000004
 30
0.0
 11
24.999999999999982
 21
-31.500000000000007
 31
0.0
  0
LINE
  5
E4
100
AcDbEntity
100
AcDbLine
  8
0
 62
256
370
-1
  6
BYLAYER
 10
24.999999999999982
 20
-31.500000000000007
 30
0.0
 11
14.999999999999996
 21
-31.499999999999996
 31
0.0
  0
LINE
  5
E5
100
AcDbEntity
100
AcDbLine
  8
0
 62
256
370
-1
  6
BYLAYER
 10
14.999999999999996
 20
-31.499999999999996
 30
0.0
 11
14.999999999999966
 21
-28.5
 31
0.0
  0
LINE
  5
E6
100
AcDbEntity
100
AcDbLine
  8
0
 62
256
370
-1
  6
BYLAYER
 10
65.0
 20
-28.500000000000004
 30
0.0
 11
64.999999999999972
 21
-31.500000000000053
 31
0.0
  0
LINE
  5
E7
100
AcDbEntity
100
AcDbLine
  8
0
 62
256
370
-1
  6
BYLAYER
 10
38.5
 20
-25.000000000000004
 30
0.0
 11
41.499999999999993
 21
-25.000000000000011
 31
0.0
  0
LINE
  5
E8
100
AcDbEntity
100
AcDbLine
  8
0
 62
256
370
-1
  6
BYLAYER
 10
38.5
 20
-54.999999999999986
 30
0.0
 11
38.5
 21
-45.0
 31
0.0
  0
LINE
  5
E9
100
AcDbEntity
100
AcDbLine
  8
0
 62
256
370
-1
  6
BYLAYER
 10
41.499999999999993
 20
-34.999999999999993
 30
0.0
 11
38.499999999999972
 21
-35.000000000000021
 31
0.0
  0
LINE
  5
EA
100
AcDbEntity
100
AcDbLine
  8
0
 62
256
370
-1
  6
BYLAYER
 10
38.5
 20
-45.0
 30
0.0
 11
41.499999999999964
 21
-45.000000000000021
 31
0.0
  0
LINE
  5
EB
100
AcDbEntity
100
AcDbLine
  8
0
 62
256
370
-1
  6
BYLAYER
 10
64.999999999999972
 20
-31.500000000000053
 30
0.0
 11
55.000000000000014
 21
-31.500000000000004
 31
0.0
  0
LINE
  5
EC
100
AcDbEntity
100
AcDbLine
  8
0
 62
256
370
-1
  6
BYLAYER
 10
41.499999999999964
 20
-45.000000000000021
 30
0.0
 11
41.499999999999986
 21
-54.999999999999993
 31
0.0
  0
LINE
  5
ED
100
AcDbEntity
100
AcDbLine
  8
0
 62
256
370
-1
  6
BYLAYER
 10
55.000000000000014
 20
-31.500000000000004
 30
0.0
 11
54.999999999999986
 21
-28.500000000000025
 31
0.0
  0
LINE
  5
EE
100
AcDbEntity
100
AcDbLine
  8
0
 62
256
370
-1
  6
BYLAYER
 10
41.499999999999986
 20
-54.999999999999993
 30
0.0
 11
38.5
 21
-54.999999999999986
 31
0.0
  0
LINE
  5
EF
100
AcDbEntity
100
AcDbLine
  8
0
 62
256
370
-1
  6
BYLAYER
 10
34.99999999999995
 20
-28.500000000000039
 30
0.0
 11
38.49999999999995
 21
-28.500000000000039
 31
0.0
  0
LINE
  5
F0
100
AcDbEntity
100
AcDbLine
  8
0
 62
256
370
-1
  6
BYLAYER
 10
41.499999999999993
 20
-25.000000000000011
 30
0.0
 11
41.500000000000007
 21
-28.499999999999982
 31
0.0
  0
LINE
  5
F1
100
AcDbEntity
100
AcDbLine
  8
0
 62
256
370
-1
  6
BYLAYER
 10
38.499999999999986
 20
-5.0000000000000036
 30
0.0
 11
38.499999999999986
 21
-15.000000000000009
 31
0.0
  0
LINE
  5
F2
100
AcDbEntity
100
AcDbLine
  8
0
 62
256
370
-1
  6
BYLAYER
 10
38.499999999999986
 20
-15.000000000000009
 30
0.0
 11
41.499999999999993
 21
-15.00000000000003
 31
0.0
  0
LINE
  5
F3
100
AcDbEntity
100
AcDbLine
  8
0
 62
256
370
-1
  6
BYLAYER
 10
41.499999999999993
 20
-15.00000000000003
 30
0.0
 11
41.499999999999986
 21
-5.0000000000000178
 31
0.0
  0
LINE
  5
F4
100
AcDbEntity
100
AcDbLine
  8
0
 62
256
370
-1
  6
BYLAYER
 10
41.499999999999986
 20
-5.0000000000000178
 30
0.0
 11
38.499999999999986
 21
-5.0000000000000036
 31
0.0
  0
LINE
  5
F5
100
AcDbEntity
100
AcDbLine
  8
0
 62
256
370
-1
  6
BYLAYER
 10
44.999999999999972
 20
-31.500000000000014
 30
0.0
 11
41.499999999999993
 21
-31.499999999999996
 31
0.0
  0
LINE
  5
F6
100
AcDbEntity
100
AcDbLine
  8
0
 62
256
370
-1
  6
BYLAYER
 10
38.499999999999979
 20
-31.500000000000011
 30
0.0
 11
34.999999999999979
 21
-31.500000000000004
 31
0.0
  0
LINE
  5
F7
100
AcDbEntity
100
AcDbLine
  8
0
 62
256
370
-1
  6
BYLAYER
 10
41.499999999999993
 20
-31.499999999999996
 30
0.0
 11
41.499999999999993
 21
-34.999999999999993
 31
0.0
  0
LINE
  5
F8
100
AcDbEntity
100
AcDbLine
  8
0
 62
256
370
-1
  6
BYLAYER
 10
41.500000000000007
 20
-28.499999999999982
 30
0.0
 11
44.999999999999979
 21
-28.499999999999982
 31
0.0
  0
LINE
  5
F9
100
AcDbEntity
100
AcDbLine
  8
0
 62
256
370
-1
  6
BYLAYER
 10
54.999999999999986
 20
-28.500000000000025
 30
0.0
 11
65.0
 21
-28.500000000000004
 31
0.0
  0
LINE
  5
FA
100
AcDbEntity
100
AcDbLine
  8
0
 62
256
370
-1
  6
BYLAYER
 10
38.499999999999972
 20
-35.000000000000021
 30
0.0
 11
38.499999999999979
 21
-31.500000000000011
 31
0.0
  0
DIMENSION
  5
FB
100
AcDbEntity
  8
0
 62
256
370
-1
  6
BYLAYER
100
AcDbDimension
 10
180.0
 20
-86.0
 30
0.0
 11
166.49999999999994
 21
-84.125
 31
0.0
 70
0
 71
8
 72
2
 41
1.0
 42
0.0
  1

  3
Standard
100
AcDbAlignedDimension
 13
152.99999999999997
 23
-82.999999999999986
 33
0.0
 14
179.99999999999991
 24
-83.000000000000171
 34
0.0
 50
0.0
100
AcDbRotatedDimension
1001
ACAD
1000
DSTYLE
1002
{
1070
144
1040
1
1002
}
  0
DIMENSION
  5
FC
100
AcDbEntity
  8
0
 62
256
370
-1
  6
BYLAYER
100
AcDbDimension
 10
87.649336302194769
 20
-75.144162322200998
 30
0.0
 11
113.24999999999997
 21
-73.269162322200998
 31
0.0
 70
0
 71
8
 72
2
 41
1.0
 42
0.0
  1

  3
Standard
100
AcDbAlignedDimension
 13
152.99999999999997
 23
-82.999999999999986
 33
0.0
 14
73.499999999999986
 24
-12.125000000000004
 34
0.0
 50
0.0
100
AcDbRotatedDimension
1001
ACAD
1000
DSTYLE
1002
{
1070
144
1040
1
1002
}
  0
ENDSEC
  0
SECTION
  2
OBJECTS
  0
DICTIONARY
  5
C
100
AcDbDictionary
280
0
281
1
  3
ACAD_GROUP
350
D
  3
ACAD_LAYOUT
350
1A
  3
ACAD_MLINESTYLE
350
17
  3
ACAD_PLOTSETTINGS
350
19
  3
ACAD_PLOTSTYLENAME
350
E
  3
AcDbVariableDictionary
350
FD
  3
QCAD_OBJECTS
350
FE
  0
DICTIONARY
  5
D
100
AcDbDictionary
280
0
281
1
  0
ACDBDICTIONARYWDFLT
  5
E
100
AcDbDictionary
281
1
  3
Normal
350
F
100
AcDbDictionaryWithDefault
340
F
  0
ACDBPLACEHOLDER
  5
F
  0
DICTIONARY
  5
17
100
AcDbDictionary
280
0
281
1
  3
Standard
350
18
  0
MLINESTYLE
  5
18
100
AcDbMlineStyle
  2
STANDARD
 70
0
  3

 62
256
 51
90.0
 52
90.0
 71
2
 49
0.5
 62
256
  6
BYLAYER
 49
-0.5
 62
256
  6
BYLAYER
  0
DICTIONARY
  5
19
100
AcDbDictionary
280
0
281
1
  0
DICTIONARY
  5
1A
100
AcDbDictionary
281
1
  3
Layout1
350
1E
  3
Layout2
350
26
  3
Model
350
22
  0
LAYOUT
  5
1E
100
AcDbPlotSettings
  1

  2
none_device
  4

  6

 40
0.0
 41
0.0
 42
0.0
 43
0.0
 44
0.0
 45
0.0
 46
0.0
 47
0.0
 48
0.0
 49
0.0
140
0.0
141
0.0
142
1.0
143
1.0
 70
688
 72
0
 73
0
 74
5
  7

 75
16
147
1.0
148
0.0
149
0.0
100
AcDbLayout
  1
Layout1
 70
1
 71
1
 10
0.0
 20
0.0
 11
420.0
 21
297.0
 12
0.0
 22
0.0
 32
0.0
 14
100000000000000000000.0
 24
100000000000000000000.0
 34
100000000000000000000.0
 15
-100000000000000000000.0
 25
-100000000000000000000.0
 35
-100000000000000000000.0
146
0.0
 13
0.0
 23
0.0
 33
0.0
 16
1.0
 26
0.0
 36
0.0
 17
0.0
 27
1.0
 37
0.0
 76
0
330
1B
  0
LAYOUT
  5
22
100
AcDbPlotSettings
  1

  2
none_device
  4

  6

 40
0.0
 41
0.0
 42
0.0
 43
0.0
 44
0.0
 45
0.0
 46
0.0
 47
0.0
 48
0.0
 49
0.0
140
0.0
141
0.0
142
1.0
143
1.0
 70
1712
 72
0
 73
0
 74
0
  7

 75
0
147
1.0
148
0.0
149
0.0
100
AcDbLayout
  1
Model
 70
1
 71
0
 10
0.0
 20
0.0
 11
12.0
 21
9.0
 12
0.0
 22
0.0
 32
0.0
 14
0.0
 24
0.0
 34
0.0
 15
0.0
 25
0.0
 35
0.0
146
0.0
 13
0.0
 23
0.0
 33
0.0
 16
1.0
 26
0.0
 36
0.0
 17
0.0
 27
1.0
 37
0.0
 76
0
330
1F
  0
LAYOUT
  5
26
100
AcDbPlotSettings
  1

  2
none_device
  4

  6

 40
0.0
 41
0.0
 42
0.0
 43
0.0
 44
0.0
 45
0.0
 46
0.0
 47
0.0
 48
0.0
 49
0.0
140
0.0
141
0.0
142
1.0
143
1.0
 70
688
 72
0
 73
0
 74
5
  7

 75
16
147
1.0
148
0.0
149
0.0
100
AcDbLayout
  1
Layout2
 70
1
 71
2
 10
0.0
 20
0.0
 11
12.0
 21
9.0
 12
0.0
 22
0.0
 32
0.0
 14
0.0
 24
0.0
 34
0.0
 15
0.0
 25
0.0
 35
0.0
146
0.0
 13
0.0
 23
0.0
 33
0.0
 16
1.0
 26
0.0
 36
0.0
 17
0.0
 27
1.0
 37
0.0
 76
0
330
23
  0
DICTIONARY
  5
FD
100
AcDbDictionary
281
1
  3
DIMASSOC
350
100
  3
HIDETEXT
350
FF
  0
DICTIONARYVAR
  5
FF
100
DictionaryVariables
280
0
  1
2
  0
DICTIONARYVAR
  5
100
100
DictionaryVariables
280
0
  1
1
  0
DICTIONARY
  5
FE
100
AcDbDictionary
281
1
  3
Grid/DisplayGrid00
350
101
  3
Grid/DisplayGrid01
350
102
  3
Grid/DisplayGrid02
350
103
  3
Grid/DisplayGrid03
350
104
  3
Grid/GridSpacingX00
350
105
  3
Grid/GridSpacingX01
350
106
  3
Grid/GridSpacingX02
350
107
  3
Grid/GridSpacingX03
350
108
  3
Grid/GridSpacingY00
350
109
  3
Grid/GridSpacingY01
350
10A
  3
Grid/GridSpacingY02
350
10B
  3
Grid/GridSpacingY03
350
10C
  3
Grid/IsometricGrid00
350
10D
  3
Grid/IsometricGrid01
350
10E
  3
Grid/IsometricGrid02
350
10F
  3
Grid/IsometricGrid03
350
110
  3
Grid/IsometricProjection00
350
111
  3
Grid/IsometricProjection01
350
112
  3
Grid/IsometricProjection02
350
113
  3
Grid/IsometricProjection03
350
114
  3
Grid/MetaGridSpacingX00
350
115
  3
Grid/MetaGridSpacingX01
350
116
  3
Grid/MetaGridSpacingX02
350
117
  3
Grid/MetaGridSpacingX03
350
118
  3
Grid/MetaGridSpacingY00
350
119
  3
Grid/MetaGridSpacingY01
350
11A
  3
Grid/MetaGridSpacingY02
350
11B
  3
Grid/MetaGridSpacingY03
350
11C
  3
MultiPageSettings/Columns
350
11D
  3
MultiPageSettings/GlueMarginsBottom
350
11E
  3
MultiPageSettings/GlueMarginsLeft
350
11F
  3
MultiPageSettings/GlueMarginsRight
350
120
  3
MultiPageSettings/GlueMarginsTop
350
121
  3
MultiPageSettings/PrintCropMarks
350
122
  3
MultiPageSettings/Rows
350
123
  3
PageSettings/OffsetX
350
124
  3
PageSettings/OffsetY
350
125
  3
PageSettings/PageOrientation
350
126
  3
PageSettings/PaperHeight
350
127
  3
PageSettings/PaperWidth
350
128
  3
PageSettings/Scale
350
129
  3
PageSettings/ShowPaperBorders
350
12A
  3
UnitSettings/PaperUnit
350
12B
  0
XRECORD
  5
101
330
FE
100
AcDbXrecord
280
1
290
1
  0
XRECORD
  5
102
330
FE
100
AcDbXrecord
280
1
290
1
  0
XRECORD
  5
103
330
FE
100
AcDbXrecord
280
1
290
1
  0
XRECORD
  5
104
330
FE
100
AcDbXrecord
280
1
290
1
  0
XRECORD
  5
105
330
FE
100
AcDbXrecord
280
1
1000
auto
  0
XRECORD
  5
106
330
FE
100
AcDbXrecord
280
1
1000
auto
  0
XRECORD
  5
107
330
FE
100
AcDbXrecord
280
1
1000
auto
  0
XRECORD
  5
108
330
FE
100
AcDbXrecord
280
1
1000
auto
  0
XRECORD
  5
109
330
FE
100
AcDbXrecord
280
1
1000
auto
  0
XRECORD
  5
10A
330
FE
100
AcDbXrecord
280
1
1000
auto
  0
XRECORD
  5
10B
330
FE
100
AcDbXrecord
280
1
1000
auto
  0
XRECORD
  5
10C
330
FE
100
AcDbXrecord
280
1
1000
auto
  0
XRECORD
  5
10D
330
FE
100
AcDbXrecord
280
1
290
0
  0
XRECORD
  5
10E
330
FE
100
AcDbXrecord
280
1
290
0
  0
XRECORD
  5
10F
330
FE
100
AcDbXrecord
280
1
290
0
  0
XRECORD
  5
110
330
FE
100
AcDbXrecord
280
1
290
0
  0
XRECORD
  5
111
330
FE
100
AcDbXrecord
280
1
 90
0
  0
XRECORD
  5
112
330
FE
100
AcDbXrecord
280
1
 90
0
  0
XRECORD
  5
113
330
FE
100
AcDbXrecord
280
1
 90
0
  0
XRECORD
  5
114
330
FE
100
AcDbXrecord
280
1
 90
0
  0
XRECORD
  5
115
330
FE
100
AcDbXrecord
280
1
1000
auto
  0
XRECORD
  5
116
330
FE
100
AcDbXrecord
280
1
1000
auto
  0
XRECORD
  5
117
330
FE
100
AcDbXrecord
280
1
1000
auto
  0
XRECORD
  5
118
330
FE
100
AcDbXrecord
280
1
1000
auto
  0
XRECORD
  5
119
330
FE
100
AcDbXrecord
280
1
1000
auto
  0
XRECORD
  5
11A
330
FE
100
AcDbXrecord
280
1
1000
auto
  0
XRECORD
  5
11B
330
FE
100
AcDbXrecord
280
1
1000
auto
  0
XRECORD
  5
11C
330
FE
100
AcDbXrecord
280
1
1000
auto
  0
XRECORD
  5
11D
330
FE
100
AcDbXrecord
280
1
 90
1
  0
XRECORD
  5
11E
330
FE
100
AcDbXrecord
280
1
 40
10.0
  0
XRECORD
  5
11F
330
FE
100
AcDbXrecord
280
1
 40
10.0
  0
XRECORD
  5
120
330
FE
100
AcDbXrecord
280
1
 40
10.0
  0
XRECORD
  5
121
330
FE
100
AcDbXrecord
280
1
 40
10.0
  0
XRECORD
  5
122
330
FE
100
AcDbXrecord
280
1
290
0
  0
XRECORD
  5
123
330
FE
100
AcDbXrecord
280
1
 90
1
  0
XRECORD
  5
124
330
FE
100
AcDbXrecord
280
1
 40
0.0
  0
XRECORD
  5
125
330
FE
100
AcDbXrecord
280
1
 40
0.0
  0
XRECORD
  5
126
330
FE
100
AcDbXrecord
280
1
1000
Portrait
  0
XRECORD
  5
127
330
FE
100
AcDbXrecord
280
1
 40
297.0
  0
XRECORD
  5
128
330
FE
100
AcDbXrecord
280
1
 40
210.0
  0
XRECORD
  5
129
330
FE
100
AcDbXrecord
280
1
1000
1:1
  0
XRECORD
  5
12A
330
FE
100
AcDbXrecord
280
1
290
1
  0
XRECORD
  5
12B
330
FE
100
AcDbXrecord
280
1
 90
4
  0
ENDSEC
  0
EOF
